<?xml version="1.0" standalone="no"?>
<!DOCTYPE svg PUBLIC "-//W3C//DTD SVG 20010904//EN"
 "http://www.w3.org/TR/2001/REC-SVG-20010904/DTD/svg10.dtd">
<svg version="1.0" xmlns="http://www.w3.org/2000/svg"
 width="800.000000pt" height="800.000000pt" viewBox="0 0 800.000000 800.000000"
 preserveAspectRatio="xMidYMid meet">

<g transform="translate(0.000000,800.000000) scale(0.100000,-0.100000)"
fill="#fff" stroke="none">
<path d="M4355 6126 c-194 -63 -341 -207 -406 -399 -21 -61 -39 -227 -24 -227
9 0 86 68 348 304 109 98 200 176 202 174 4 -4 -19 -31 -307 -347 l-187 -206
53 -3 c133 -7 320 66 424 167 134 129 197 285 190 471 l-3 85 -110 2 c-92 2
-122 -1 -180 -21z"/>
<path d="M3352 5782 c3 -73 9 -99 33 -147 62 -122 181 -203 313 -212 l67 -5
-40 43 c-37 40 -86 94 -194 214 -99 110 -81 100 101 -55 84 -71 156 -130 161
-130 13 0 8 46 -13 111 -50 160 -200 269 -368 269 l-64 0 4 -88z"/>
<path d="M2804 5161 c-58 -35 -64 -67 -53 -247 36 -546 285 -956 705 -1160
428 -208 971 -147 1321 149 41 35 81 58 117 69 103 32 241 89 335 139 252 134
396 269 483 455 30 63 33 78 33 164 0 84 -3 102 -28 152 -31 62 -84 116 -148
149 -57 28 -191 51 -256 43 l-52 -6 -15 36 c-8 19 -30 45 -48 56 -33 20 -47
20 -1198 20 -1130 0 -1166 -1 -1196 -19z m2213 -298 c-13 -172 -81 -391 -166
-532 -101 -166 -232 -286 -406 -370 -163 -80 -238 -96 -445 -96 -204 1 -282
17 -436 90 -191 90 -334 225 -437 415 -73 134 -132 337 -144 493 l-6 87 1023
0 1023 0 -6 -87z m436 -27 c50 -21 70 -50 70 -99 0 -85 -90 -218 -211 -310
-73 -56 -201 -131 -209 -124 -3 4 6 33 20 64 46 106 84 243 115 423 6 35 12
46 32 51 44 12 150 9 183 -5z"/>
<path d="M3392 4649 c-62 -10 -197 -62 -230 -87 l-23 -18 30 -67 c179 -399
574 -597 1026 -515 69 13 163 46 238 85 l52 26 -65 12 c-116 19 -172 59 -384
270 -183 183 -195 193 -286 238 -131 63 -224 78 -358 56z"/>
<path d="M5603 3851 c-25 -16 -36 -33 -49 -76 -17 -59 -14 -102 12 -163 25
-60 126 -80 177 -35 63 57 63 210 -1 267 -32 28 -100 31 -139 7z m95 -73 c7
-7 12 -37 12 -68 0 -61 -11 -80 -47 -80 -39 0 -57 79 -31 135 12 27 45 34 66
13z"/>
<path d="M5919 3859 c-55 -20 -69 -120 -23 -166 23 -23 31 -25 75 -20 43 5 49
4 49 -12 0 -10 -9 -26 -20 -36 -19 -17 -21 -17 -38 -2 -10 10 -33 17 -50 17
-41 0 -43 -26 -6 -64 21 -21 36 -26 74 -26 75 0 110 53 110 170 0 118 -71 176
-171 139z m81 -74 c18 -22 8 -50 -19 -50 -32 0 -49 28 -32 49 17 20 35 20 51
1z"/>
<path d="M2030 3842 c-27 -13 -37 -26 -44 -55 -12 -48 13 -85 73 -107 48 -18
76 -43 67 -59 -10 -16 -46 -13 -52 4 -4 10 -20 15 -51 15 -41 0 -44 -2 -38
-22 12 -39 41 -60 88 -65 90 -10 137 20 137 86 0 46 -21 67 -94 95 -33 13 -46
23 -46 37 0 20 34 27 45 9 3 -5 26 -10 51 -10 42 0 45 1 38 23 -10 34 -23 46
-63 57 -50 14 -71 13 -111 -8z"/>
<path d="M6156 3848 c-9 -29 -1 -50 21 -59 22 -8 23 -12 23 -124 l0 -115 40 0
40 0 0 155 0 155 -60 0 c-40 0 -62 -4 -64 -12z"/>
<path d="M1720 3710 c0 -77 0 -143 0 -147 0 -5 43 -9 95 -11 l95 -3 0 31 c0
30 0 30 -55 30 -54 0 -55 0 -55 30 0 29 2 30 45 30 43 0 45 1 45 30 0 29 -2
30 -45 30 -43 0 -45 1 -45 30 0 30 1 30 55 30 54 0 55 0 55 30 l0 30 -95 0
-95 0 0 -140z"/>
<path d="M2280 3821 c0 -27 3 -30 38 -33 l37 -3 3 -117 3 -118 39 0 40 0 0
120 0 120 40 0 c38 0 40 2 40 30 l0 30 -120 0 -120 0 0 -29z"/>
<path d="M3564 3516 c-28 -28 -34 -42 -34 -76 0 -34 6 -48 34 -76 l34 -34 397
0 c352 0 400 2 425 17 67 39 67 147 0 186 -25 15 -73 17 -425 17 l-397 0 -34
-34z"/>
<path d="M2821 2958 c-295 -102 -315 -533 -31 -667 48 -23 68 -26 160 -26 101
0 108 1 168 34 173 94 237 302 151 485 -73 156 -274 234 -448 174z m209 -180
c54 -37 73 -71 78 -138 10 -139 -57 -208 -195 -202 -22 2 -46 14 -72 37 -88
80 -76 246 21 305 47 28 125 27 168 -2z"/>
<path d="M1821 2949 c-79 -28 -134 -78 -173 -157 -31 -62 -33 -73 -33 -172 0
-128 18 -183 84 -254 70 -75 133 -100 256 -100 87 -1 107 2 156 25 68 32 121
83 154 149 40 79 40 80 -74 80 l-99 0 -40 -40 c-39 -39 -57 -45 -122 -40 -66
5 -130 90 -130 171 0 159 153 245 255 143 l34 -34 101 0 c114 0 113 -1 75 77
-34 68 -98 125 -169 152 -74 27 -198 28 -275 0z"/>
<path d="M3620 2615 l0 -355 95 0 95 0 0 140 0 139 103 3 102 3 0 70 0 70 -90
2 c-49 1 -96 2 -102 2 -9 1 -13 21 -13 66 l0 65 140 0 140 0 0 75 0 75 -235 0
-235 0 0 -355z"/>
<path d="M4399 2878 c0 -82 0 -572 1 -605 0 -10 26 -13 95 -13 l95 0 0 140 0
139 103 3 102 3 0 70 0 70 -85 2 c-47 1 -93 2 -102 2 -15 1 -18 11 -18 66 l0
65 140 0 140 0 0 75 0 75 -235 0 -235 0 -1 -92z"/>
<path d="M5176 2946 c-3 -13 -5 -172 -3 -352 l2 -329 223 -3 222 -2 0 80 0 80
-125 0 -125 0 0 65 0 65 115 0 115 0 0 69 c0 54 -4 70 -16 75 -9 3 -60 6 -115
6 l-99 0 0 55 0 55 125 0 125 0 0 80 0 80 -219 0 -219 0 -6 -24z"/>
<path d="M5945 2957 c-3 -6 -4 -165 -3 -352 l3 -340 223 -3 222 -2 0 80 0 80
-125 0 -125 0 0 65 0 64 113 3 112 3 0 70 0 70 -112 3 -113 3 0 54 0 55 125 0
125 0 0 80 0 80 -220 0 c-168 0 -222 -3 -225 -13z"/>
<path d="M2683 2042 c-37 -2 -53 -7 -53 -17 0 -7 10 -15 23 -17 20 -3 22 -9
27 -82 4 -66 8 -80 23 -82 15 -2 17 7 17 77 l0 80 30 6 c21 4 30 11 28 21 -3
17 -16 19 -95 14z"/>
<path d="M2969 2042 c-22 -3 -29 -14 -57 -95 -17 -50 -28 -95 -23 -100 11 -11
41 2 41 19 0 23 77 18 90 -5 10 -19 45 -23 45 -5 0 15 -57 179 -64 184 -3 3
-17 4 -32 2z m24 -98 c3 -17 0 -27 -10 -31 -24 -9 -35 11 -23 41 12 32 25 27
33 -10z"/>
<path d="M3484 2036 c-3 -7 -4 -53 -2 -102 l3 -89 35 1 c65 3 70 4 70 19 0 10
-10 15 -30 15 l-30 0 0 79 c0 71 -2 79 -21 84 -11 3 -22 0 -25 -7z"/>
<path d="M4163 2034 c-2 -6 -3 -50 -1 -99 l3 -89 40 1 c68 1 75 3 75 18 0 10
-11 15 -35 15 -31 0 -35 3 -35 25 0 21 5 25 30 25 20 0 30 5 30 15 0 10 -10
15 -30 15 -25 0 -30 4 -30 25 0 22 4 25 35 25 23 0 35 5 35 14 0 18 -110 27
-117 10z"/>
<path d="M4590 2009 c0 -33 -4 -40 -24 -45 -45 -11 -61 -2 -64 39 -3 29 -7 37
-23 37 -18 0 -19 -8 -19 -101 0 -90 2 -100 18 -97 12 2 19 16 22 43 5 37 8 40
39 43 39 4 51 -9 51 -56 0 -26 4 -33 18 -30 14 3 17 17 20 99 2 90 1 97 -18
102 -18 4 -20 0 -20 -34z"/>
<path d="M4755 2042 c-8 -8 -6 -190 3 -195 4 -3 31 -2 60 0 62 7 72 30 15 35
-30 2 -38 7 -38 23 0 15 8 21 33 23 42 4 44 32 2 32 -19 0 -33 6 -37 16 -7 20
13 34 50 34 41 0 36 30 -5 31 -18 0 -43 2 -56 3 -12 2 -24 0 -27 -2z"/>
<path d="M5253 2034 c-2 -6 -3 -50 -1 -99 l3 -89 55 0 c44 0 55 3 58 17 3 13
-4 17 -32 17 -32 0 -36 3 -36 25 0 21 5 25 30 25 20 0 30 5 30 15 0 10 -10 15
-31 15 -26 0 -30 3 -27 23 2 17 11 23 36 25 18 2 32 9 32 17 0 17 -110 26
-117 9z"/>
<path d="M3204 2017 c-23 -20 -27 -32 -27 -70 0 -66 29 -97 93 -97 52 0 85 23
96 66 9 34 -6 46 -51 42 -44 -3 -62 -28 -21 -28 32 0 35 -25 5 -41 -45 -23
-91 27 -74 80 8 25 51 38 76 22 23 -14 59 -15 59 -1 0 6 -9 19 -20 30 -29 29
-100 27 -136 -3z"/>
<path d="M3700 1947 c0 -52 3 -97 6 -100 4 -3 14 -2 23 2 13 8 15 24 13 100
-3 82 -5 91 -23 91 -17 0 -19 -8 -19 -93z"/>
<path d="M3872 1943 c2 -79 6 -98 18 -98 11 0 16 16 20 60 l5 60 34 -53 c32
-50 65 -76 84 -65 4 2 7 47 7 99 0 87 -1 94 -20 94 -18 0 -20 -7 -20 -56 0
-32 -4 -54 -10 -52 -5 2 -25 26 -43 53 -20 32 -41 51 -55 53 -23 3 -23 2 -20
-95z"/>
<path d="M4982 1943 c3 -90 5 -98 23 -98 16 0 21 8 23 38 2 20 6 37 10 37 4 0
17 -18 30 -40 14 -25 30 -40 42 -40 24 0 25 10 3 48 -16 28 -16 30 5 52 27 29
28 54 2 80 -16 16 -33 20 -80 20 l-61 0 3 -97z m102 44 c8 -14 8 -20 -4 -27
-22 -14 -40 -12 -46 5 -16 41 27 60 50 22z"/>
</g>
</svg>
